# xmcd
#
# Track frame offsets:
#	150
#	20205
#	41286
#	60766
#
# Disc length: 1075 seconds
#
# Revision: 1
# Processed by: cddbd v1.5.1PL0 Copyright (c) Steve Scherf et al.
# Submitted via: CDex 1.50Beta5
#
DISCID=26043104
DTITLE=川口大輔 - High Crime
DYEAR=2003
DGENRE=Pop
TTITLE0=High Crime
TTITLE1=星の呼吸
TTITLE2=Not Alone (The Two Of US)
TTITLE3=High Crime (Less Vocal)
EXTD=
EXTT0=
EXTT1=
EXTT2=
EXTT3=
PLAYORDER=
